# xmcd CD database file
# Copyright (C) 1993-1996 Ti Kan
#
# Track frame offsets:
#	200
#	11822
#	26662
#	39462
#	50417
#	64912
#	80667
#	98077
#	115327
#	128832
#	140852
#	157787
#	175155
#	188265
#
# Disc length: 2721 seconds
#
# Revision: 2
# Processed by: cddbd v1.4b41PL1 Copyright (c) Steve Scherf et al.
# Submitted via: CDValet v3.01 - Copyright (c) 1997 Greg Leichner
#
DISCID=b60a9f0e
DTITLE=Bobby Womack - Looking for a Love The Best of Bobby Womack 1968 - 1975
DYEAR=1900
DGENRE=
TTITLE0=What Is This?
TTITLE1=How I Miss You Baby
TTITLE2=More Than I Can Stand
TTITLE3=I'm Gonna Forget About You
TTITLE4=That's the Way I Feel About Cha
TTITLE5=Woman's Got To Have It
TTITLE6=Harry Hippe
TTITLE7=Across 110th Street
TTITLE8=Nobody Wants You When You're Down And Out
TTITLE9=Lookin' For A Love
TTITLE10=You're Welcome, Stop On By
TTITLE11=Check It Out
TTITLE12=It's All Over Now
TTITLE13=Daylight
EXTD=
EXTT0=
EXTT1=
EXTT2=
EXTT3=
EXTT4=
EXTT5=
EXTT6=
EXTT7=
EXTT8=
EXTT9=
EXTT10=
EXTT11=
EXTT12=
EXTT13=
PLAYORDER=
